<svg xmlns="http://www.w3.org/2000/svg" width="139.529" height="139.529" viewBox="0 0 139.529 139.529">
  <g>
    <circle cx="69.765" cy="69.765" r="69.765" fill="#fff"/>
    <path d="M108.84,30.3a55.741,55.741,0,0,0-78.87,78.79l.04.04a55.741,55.741,0,0,0,78.869-78.79Zm9.748,46.9c-1.755,3.459-4.043,5.38-6.98,5.866-3.426.565-9.565-1.035-16.191-7.141,6.636-6.127,12.774-7.734,16.191-7.166,2.937.486,5.225,2.418,6.98,5.9Zm-6.2-13.154a19.134,19.134,0,0,0-11.92,2.465A39.31,39.31,0,0,0,92.09,72.5q-.874-1.02-1.623-2.044c-.291-.4-.59-.807-.894-1.214.849-1.636,5.717-4.755,9.308-7.054a78.01,78.01,0,0,0,12.042-8.8,14.28,14.28,0,0,0,3.7-5.339,7.988,7.988,0,0,0,.343-1.416,50.765,50.765,0,0,1,5.481,22.182A13.2,13.2,0,0,0,112.391,64.048ZM62.8,114.176c-.469,1.589-1,2.3-1.3,2.3h0c-1.685-.051-3.131-4.8-4.087-7.946a49.5,49.5,0,0,0-1.93-5.563,40.554,40.554,0,0,0,9.028-1.2c-.177,1.26-.313,2.649-.451,4.079A49.408,49.408,0,0,1,62.8,114.176ZM53.33,98.207c-10.3-.226-17.923-5.783-21.548-9.076-5.406-4.9-8.366-10.393-8.5-13.275-.1-2.131,1.7-6.3,5.92-10.819A37.073,37.073,0,0,1,46.05,54.707,17.315,17.315,0,0,1,61.778,70.935a18.541,18.541,0,0,1-3.42,11.41,11.96,11.96,0,0,1-8.782,5.374c-6.905.447-10.663-2.56-12.6-5.165A12.5,12.5,0,0,1,34.97,71.263a10.254,10.254,0,0,1,8.969-6.225,7.491,7.491,0,0,1,7.4,4.625c1.664,3.542,1.64,6.576-.067,8.546A5.39,5.39,0,0,1,45.8,79.85a5.148,5.148,0,0,1-3.113-4.041,2.63,2.63,0,0,1,.685-2.523,1.514,1.514,0,0,1,1.6-.325,1.481,1.481,0,0,1,.763.746,2.347,2.347,0,0,0,4.45,1.483,5.2,5.2,0,0,0-2.037-5.766,6.123,6.123,0,0,0-7.5.042,7.052,7.052,0,0,0-2.587,7.1,9.737,9.737,0,0,0,6.372,7.774,10.063,10.063,0,0,0,10.4-3.054c2.955-3.406,3.236-8.369.77-13.616a12.1,12.1,0,0,0-11.846-7.32,14.917,14.917,0,0,0-13.172,9.284,17.108,17.108,0,0,0,2.64,15.731,18.087,18.087,0,0,0,15.054,7.1q.795,0,1.616-.053A16.546,16.546,0,0,0,62.158,85.1a23.326,23.326,0,0,0,4.3-14.351A22.089,22.089,0,0,0,61.07,57.468a21.808,21.808,0,0,0-4.223-3.749,31.918,31.918,0,0,1,16.966,5.864c5.381,3.824,9.43,9.07,12.8,13.687q.974,1.335,2.133,2.659c-.769.88-1.483,1.77-2.132,2.66-3.372,4.617-7.417,9.864-12.8,13.688A32.852,32.852,0,0,1,53.33,98.207ZM107.718,50.12a75.122,75.122,0,0,1-11.3,8.2c-4.568,2.924-7.862,5.095-9.728,7.166a61.791,61.791,0,0,0-5.254-5.764c2.409.662,5-1.1,5.969-1.755a74.188,74.188,0,0,0,7.172-6c4.463-4.033,10.572-9.555,13.774-9.126a2.271,2.271,0,0,1,1.664,1.251C110.456,44.789,111.487,46.408,107.718,50.12ZM86.305,41.47c-4.5,4.8-8.767,9.324-8.5,13.464a5.372,5.372,0,0,0,.587,2.129c-.59-.47-1.192-.927-1.815-1.375a36.555,36.555,0,0,0-6.725-3.8,9.491,9.491,0,0,0,5.471-3.412,61.149,61.149,0,0,0,5.912-8.493,55.456,55.456,0,0,1,6.409-9.028c2.732-2.766,4.082-2.075,4.731-1.743,1.348.69,1.457,1.278,1.485,1.472C94.263,33.006,89.663,37.9,86.305,41.47ZM84.382,27.737a58.161,58.161,0,0,0-7.04,9.829c-2.751,4.426-6.52,10.489-8.646,9.728-.217-.078-.238-.133-.255-.172-.085-.21-.285-1.094.677-3.725a76,76,0,0,1,3.222-7.048c3.168-6.391,6.161-12.426,3.94-16.326a5.216,5.216,0,0,0-.731-.978A50.517,50.517,0,0,1,93.719,24.8C90.646,23.589,87.509,24.569,84.382,27.737ZM70.508,21.656c.555.042,1.525.181,1.787.642.169.3.458,1.3-.53,4.173a72.81,72.81,0,0,1-3.532,7.846c-2.931,5.911-5.462,11.015-4.044,14.526a4.7,4.7,0,0,0,.861,1.386A40.035,40.035,0,0,0,55.892,48.9c3.761-4.756,5.287-10.8,6.576-15.909C64.568,24.659,65.882,21.3,70.508,21.656ZM87.926,84.8a30.877,30.877,0,0,1,3.539,5.55c1.879,3.587,1.43,5.655,1.059,6-.2.188-1.192.219-2.951-.886a32.753,32.753,0,0,0-7.767-3.692A67.254,67.254,0,0,0,87.926,84.8Zm21.853-46.337a6.662,6.662,0,0,0-.816-.165c-5.308-.716-11.489,4.868-17.465,10.269-2.111,1.907-4.106,3.708-5.828,5a8.56,8.56,0,0,1-2.974,1.7.889.889,0,0,1-.317-.636c-.132-2.153,4.14-6.705,7.265-10.028,4.9-5.211,9.525-10.132,8.731-14.708a6.011,6.011,0,0,0-2.3-3.735,50.939,50.939,0,0,1,13.7,12.3ZM33.329,33.62A50.666,50.666,0,0,1,64.02,18.956a10.583,10.583,0,0,0-2.434,2.766,36.63,36.63,0,0,0-3.564,10.14c-1.59,6.324-3.407,13.48-9.15,17.383C37,51,28.874,58.4,25.714,61.774,21.657,66.114,19.1,70.7,18.6,74.411c-.14-1.552-.218-3.117-.218-4.7A50.715,50.715,0,0,1,33.329,33.62Zm-13.9,46.461a35.021,35.021,0,0,0,9.139,12.592,39.167,39.167,0,0,0,20.181,9.905,2.637,2.637,0,0,0,.558.491c1.139.721,2.242,4.35,3.046,7a39.351,39.351,0,0,0,2.678,7.152,12.021,12.021,0,0,0,1.207,1.815A51.1,51.1,0,0,1,19.433,80.081Zm86.088,25.73a50.716,50.716,0,0,1-36.1,14.95c-1.5,0-2.985-.074-4.462-.2a9.461,9.461,0,0,0,2.9-4.886,52.858,52.858,0,0,0,1.451-9.307,38.542,38.542,0,0,1,.853-6.048,2.744,2.744,0,0,0,.1-.53,36.635,36.635,0,0,0,6.312-3.619c.229-.161.449-.328.673-.5.679,0,4.153.209,9.821,3.771a9.549,9.549,0,0,0,5.032,1.706,5.23,5.23,0,0,0,3.6-1.347c2.5-2.309,2.465-6.764-.083-11.629a31.422,31.422,0,0,0-4.822-7.2c.408-.539.836-1.078,1.3-1.616a39.193,39.193,0,0,0,8.371,5.969,19.171,19.171,0,0,0,11.92,2.454,12.6,12.6,0,0,0,5.647-2.439A50.8,50.8,0,0,1,105.521,105.811Z" fill="#231f20"/>
  </g>
</svg>
