<?xml version="1.0" standalone="no"?>
<!DOCTYPE svg PUBLIC "-//W3C//DTD SVG 20010904//EN"
 "http://www.w3.org/TR/2001/REC-SVG-20010904/DTD/svg10.dtd">
<svg version="1.0" xmlns="http://www.w3.org/2000/svg"
 width="700.000000pt" height="700.000000pt" viewBox="0 0 700.000000 700.000000"
 preserveAspectRatio="xMidYMid meet">
<metadata>
Created by potrace 1.14, written by Peter Selinger 2001-2017
</metadata>
<g transform="translate(0.000000,700.000000) scale(0.100000,-0.100000)"
fill="#000000" stroke="none">
<path d="M3269 6996 c-2 -2 -44 -7 -94 -10 -49 -4 -99 -9 -110 -11 -11 -2 -38
-7 -60 -10 -75 -9 -122 -18 -230 -39 -315 -63 -758 -233 -1014 -388 -34 -21
-65 -38 -67 -38 -11 0 -256 -168 -334 -229 -771 -598 -1258 -1486 -1347 -2454
-10 -105 -10 -515 -1 -632 41 -488 219 -1039 475 -1463 37 -62 73 -121 78
-130 38 -66 220 -306 304 -402 35 -39 213 -220 267 -270 113 -105 356 -294
459 -357 475 -289 835 -428 1340 -518 17 -2 50 -7 75 -11 25 -3 56 -7 70 -10
151 -26 648 -26 840 1 19 2 53 7 75 10 22 3 67 10 100 16 33 5 74 13 90 15
164 29 483 125 640 193 144 62 301 139 396 193 556 317 1001 759 1319 1312 62
109 170 329 185 376 4 14 11 30 15 35 9 11 33 75 85 230 47 139 110 395 129
525 3 19 8 45 10 57 3 12 8 53 11 90 4 37 9 77 12 88 3 11 6 135 8 275 3 230
-2 333 -21 485 -11 89 -12 99 -24 165 -6 36 -13 79 -16 95 -11 62 -75 304
-103 392 -233 712 -693 1340 -1296 1769 -443 315 -967 532 -1475 609 -25 4
-52 9 -60 10 -8 2 -44 6 -80 10 -36 4 -74 9 -85 12 -23 6 -560 14 -566 9z
m-180 -377 c-91 -97 -200 -334 -263 -569 -26 -98 -103 -400 -111 -435 -11 -45
-69 -215 -100 -291 -70 -169 -150 -297 -256 -409 -105 -110 -128 -123 -281
-155 -215 -45 -370 -100 -579 -205 -458 -229 -887 -638 -1082 -1030 -49 -98
-99 -236 -99 -274 0 -14 -3 -19 -8 -11 -9 14 -11 65 -13 245 -6 692 212 1362
627 1923 43 59 82 109 85 112 3 3 35 39 70 80 83 97 263 274 370 363 362 303
794 523 1256 642 122 31 428 86 442 80 2 -1 -25 -30 -58 -66z m996 31 c182
-34 300 -65 460 -120 161 -56 445 -180 445 -195 0 -2 -12 0 -27 4 -46 13 -146
13 -199 0 -65 -16 -165 -68 -236 -124 -124 -97 -316 -345 -504 -651 -265 -431
-396 -599 -499 -645 -68 -30 -98 -11 -89 56 19 139 54 223 319 770 156 323
214 494 220 654 4 106 -8 159 -54 233 l-31 49 48 -6 c26 -4 92 -15 147 -25z
m-433 -150 c85 -39 25 -261 -189 -700 -223 -456 -275 -578 -298 -701 -3 -13
-8 -37 -11 -53 -20 -93 1 -223 46 -287 25 -33 23 -34 -62 -14 -66 15 -96 20
-163 30 -22 4 -47 8 -55 10 -15 4 -184 20 -254 24 -19 1 -19 2 1 24 87 94 243
415 297 608 8 30 26 97 41 149 15 52 29 102 30 110 2 8 28 107 59 220 85 314
133 427 220 513 40 41 66 57 107 69 62 18 189 17 231 -2z m1663 -359 c235
-160 513 -418 684 -635 17 -21 31 -40 31 -41 0 -2 -15 0 -33 5 -49 11 -158 3
-224 -16 -124 -35 -286 -127 -458 -258 -44 -33 -82 -63 -85 -66 -3 -3 -50 -43
-105 -90 -55 -47 -106 -92 -115 -100 -9 -8 -53 -49 -99 -90 -46 -41 -93 -84
-105 -95 -167 -151 -332 -280 -404 -317 -61 -31 -64 -32 -77 -15 -43 59 73
253 292 487 23 25 50 55 60 66 10 12 68 75 129 140 322 344 440 506 493 680
41 131 27 240 -44 348 -24 36 -38 63 -32 59 7 -4 48 -32 92 -62z m-329 -126
c46 -35 58 -76 40 -134 -39 -126 -164 -287 -516 -661 -360 -384 -482 -577
-481 -767 0 -37 7 -88 15 -111 l16 -44 -48 36 c-124 95 -216 151 -374 231
l-108 53 53 17 c146 48 235 123 393 336 127 169 158 216 277 416 186 310 386
566 498 635 19 12 54 27 79 33 52 14 102 1 156 -40z m987 -839 c64 -27 107
-99 102 -171 -5 -77 -93 -208 -202 -301 -32 -27 -64 -55 -72 -62 -68 -65 -375
-284 -549 -392 -302 -187 -506 -331 -621 -437 -25 -24 -48 -43 -51 -42 -3 0
-33 35 -67 77 -35 42 -106 122 -158 177 -52 54 -95 99 -95 100 0 0 26 -1 58
-3 151 -9 349 116 712 447 52 47 115 104 140 126 25 22 47 42 50 45 21 22 244
209 274 229 12 8 23 18 26 21 14 17 199 133 247 155 96 44 155 53 206 31z
m477 -424 c23 -53 43 -101 44 -107 1 -5 4 -14 7 -20 8 -13 63 -182 88 -270 16
-60 30 -117 56 -242 3 -13 7 -31 9 -40 8 -39 16 -91 22 -148 3 -33 8 -62 9
-65 2 -3 7 -66 11 -140 3 -74 8 -138 11 -142 14 -25 -20 0 -67 48 -189 192
-461 272 -765 224 -268 -41 -579 -203 -868 -452 -44 -38 -82 -68 -85 -68 -10
1 -144 179 -149 199 -11 42 225 223 582 446 134 83 292 187 325 212 8 6 69 52
135 101 165 124 309 250 377 330 61 71 141 214 153 272 14 70 18 65 105 -138z
m-3625 -257 c39 -4 79 -9 90 -11 10 -2 37 -6 59 -10 171 -25 430 -119 618
-223 313 -174 579 -429 918 -881 51 -69 118 -155 148 -192 l54 -68 -54 -67
c-30 -38 -103 -132 -162 -211 -426 -568 -788 -862 -1250 -1016 -234 -78 -425
-105 -706 -101 -118 1 -224 5 -235 8 -11 2 -42 8 -70 12 -215 30 -464 121
-695 253 -364 209 -693 544 -855 870 -103 208 -104 324 -5 523 36 72 141 238
172 270 7 8 31 36 53 63 59 74 217 228 309 302 178 143 369 255 582 342 226
93 258 96 432 46 395 -114 671 -406 769 -815 25 -103 24 -334 -1 -444 -36
-158 -96 -297 -186 -430 -151 -224 -373 -346 -630 -346 -119 0 -175 7 -270 31
-347 88 -592 385 -605 735 -7 202 36 329 157 455 57 60 88 84 151 119 75 43
130 62 212 76 256 42 459 -76 558 -326 108 -271 56 -486 -138 -576 -50 -22
-74 -27 -140 -27 -70 -1 -86 3 -128 28 -111 66 -181 211 -153 321 29 121 189
128 184 8 -1 -47 23 -96 65 -126 39 -30 121 -30 163 0 103 73 87 277 -29 392
-75 74 -156 110 -257 116 -172 9 -325 -94 -398 -269 -56 -133 -26 -351 67
-493 122 -185 295 -279 506 -274 248 5 475 165 568 398 40 100 51 234 32 375
-16 114 -87 303 -152 407 -145 228 -414 364 -686 348 -98 -6 -118 -9 -212 -33
-78 -20 -227 -92 -295 -143 -177 -132 -302 -314 -343 -496 -25 -111 -28 -141
-28 -250 1 -120 5 -152 32 -260 96 -377 396 -681 779 -788 52 -15 124 -31 160
-36 83 -12 328 -7 400 9 282 61 518 224 680 470 214 327 292 669 235 1040 -11
70 -56 221 -91 301 -90 211 -254 424 -426 554 -32 24 -52 45 -45 48 6 2 14 3
17 2 3 -2 37 -6 75 -10z m3397 -955 c107 -33 196 -101 282 -214 67 -88 84
-132 84 -216 0 -65 -4 -83 -30 -130 -89 -161 -222 -273 -372 -311 -191 -49
-490 36 -766 217 -116 76 -280 208 -280 225 0 14 160 143 263 213 192 130 409
219 582 239 65 7 174 -3 237 -23z m-1257 -681 c57 -58 273 -219 375 -278 219
-128 363 -186 515 -207 28 -3 59 -8 70 -11 30 -6 235 -4 270 2 120 23 205 55
290 110 30 19 57 35 60 35 7 0 -41 -132 -91 -251 -319 -764 -931 -1380 -1695
-1708 -258 -110 -588 -201 -829 -226 -30 -4 -60 -8 -67 -10 -62 -20 -591 -25
-622 -6 -5 4 4 22 21 41 64 73 125 188 142 272 38 176 47 228 60 313 15 102
24 187 31 286 6 101 17 181 42 307 l16 83 100 50 c56 28 113 59 128 70 15 10
29 19 32 19 6 0 139 89 160 108 15 13 27 14 91 4 141 -22 330 -99 514 -211
132 -79 177 -99 271 -115 304 -51 482 203 391 557 -47 187 -215 490 -364 662
-33 38 -34 41 -18 60 35 43 66 75 71 75 3 0 20 -14 36 -31z m-4430 -336 c222
-342 566 -650 935 -839 228 -117 424 -187 644 -230 70 -14 95 -24 123 -48 56
-50 107 -164 183 -416 80 -261 147 -430 215 -535 l33 -53 -111 35 c-62 19
-121 38 -132 43 -11 5 -63 25 -115 46 -819 319 -1499 1012 -1808 1844 -55 150
-132 408 -132 446 0 4 24 -40 54 -99 30 -58 80 -146 111 -194z m4212 -90 c142
-212 223 -398 223 -515 0 -57 -17 -98 -41 -98 -38 0 -117 34 -214 93 -85 51
-141 80 -290 147 -11 5 -48 20 -83 32 l-62 23 76 80 c42 44 128 142 192 218
63 75 117 137 118 137 1 0 37 -53 81 -117z m-1562 -1005 c-4 -35 -8 -74 -10
-88 -2 -14 -6 -59 -10 -100 -4 -41 -8 -86 -10 -100 -2 -14 -6 -52 -10 -85 -21
-215 -79 -439 -126 -481 -17 -16 -20 -16 -46 1 -41 27 -60 52 -92 119 -55 116
-53 110 -166 466 -20 63 -48 144 -61 178 -14 35 -23 66 -21 69 3 2 36 6 73 8
95 6 196 15 214 20 8 2 35 7 60 10 66 9 163 29 208 44 2 1 1 -27 -3 -61z"/>
</g>
</svg>
