<svg xmlns="http://www.w3.org/2000/svg" width="149.9" height="116.007" viewBox="0 0 149.9 116.007">
  <g style="isolation: isolate">
    <polygon points="38.356 11.975 30.262 17.293 32.272 18.265 32.171 22.4 0 41.763 4.841 43.679 5.043 73.43 2.118 75.952 2.118 80.087 89.48 116.007 147.264 83.49 147.264 79.316 145.506 79.096 145.067 47.677 149.9 43.503 118.262 30.54 118.262 18.895 122.656 15.16 90.139 0 85.745 0.22 74.733 6.857 75.409 3.91 71.113 1.81 67.007 5.056 68.821 5.438 68.631 8.779 58.501 5.273 45.538 14.94 38.356 11.975" fill="#d7df23" style="mix-blend-mode: multiply"/>
  </g>
</svg>
