<?xml version="1.0" encoding="utf-8"?>
<!-- Generator: Adobe Illustrator 26.0.1, SVG Export Plug-In . SVG Version: 6.00 Build 0)  -->
<svg version="1.1" id="Layer_1" xmlns="http://www.w3.org/2000/svg" xmlns:xlink="http://www.w3.org/1999/xlink" x="0px" y="0px"
	 viewBox="0 0 97.9 97.9" xml:space="preserve">
<style type="text/css">
	.st0{fill:#FFFFFF;}
</style>
<path id="Layer_2_00000024703484118887485250000003252495194226708872_" class="st0" d="M66.9,31.4c-11.2-11.2-29.3-11.2-40.5,0
	s-11.2,29.3,0,40.5l0,0c11.2,11.2,29.3,11.2,40.5,0S78.1,42.6,66.9,31.4L66.9,31.4z M71.9,55.5c-0.6,1.5-2,2.7-3.6,3
	c-1.8,0.3-4.9-0.5-8.3-3.7c3.4-3.1,6.6-4,8.3-3.7c1.6,0.3,3,1.5,3.6,3V55.5z M68.7,48.7c-2.1-0.2-4.3,0.2-6.1,1.3
	c-1.6,0.8-3,1.8-4.3,3c-0.3-0.3-0.6-0.7-0.8-1L57,51.4c0.4-0.8,2.9-2.4,4.8-3.6c2.2-1.3,4.3-2.8,6.2-4.5c0.8-0.8,1.5-1.7,1.9-2.8
	c0.1-0.2,0.1-0.5,0.2-0.7c1.8,3.5,2.8,7.4,2.8,11.4C71.8,49.9,70.4,49,68.7,48.7z M43.2,74.4c-0.2,0.8-0.5,1.2-0.7,1.2l0,0
	c-0.9,0-1.6-2.5-2.1-4.1c-0.3-1-0.6-1.9-1-2.8c1.6,0,3.1-0.2,4.6-0.6c-0.1,0.7-0.2,1.4-0.2,2.1C43.8,71.6,43.6,73,43.2,74.4z
	 M38.4,66.2c-4.1-0.2-8-1.8-11.1-4.7c-2.8-2.5-4.3-5.3-4.4-6.8c0-1.1,0.9-3.2,3-5.6c2.4-2.5,5.3-4.4,8.6-5.3
	c4.4,0.4,7.8,3.9,8.1,8.3c0.1,2.1-0.5,4.1-1.7,5.9c-1,1.6-2.7,2.6-4.5,2.8c-3.6,0.2-5.5-1.3-6.5-2.6c-1.3-1.7-1.6-3.8-1-5.8
	c0.8-1.9,2.6-3.1,4.6-3.2c1.6-0.1,3.2,0.9,3.8,2.4c0.8,1.8,0.8,3.4,0,4.4c-0.7,0.8-1.8,1.1-2.8,0.8c-0.9-0.4-1.5-1.2-1.6-2.1
	c-0.1-0.5,0-1,0.3-1.3c0.5-0.3,0.7-0.2,0.8-0.2c0.2,0.1,0.3,0.2,0.4,0.4c-0.2,0.6,0.1,1.3,0.8,1.5c0.6,0.2,1.3-0.1,1.5-0.8l0,0
	c0.4-1.1-0.1-2.3-1-3c-1.1-0.9-2.7-0.9-3.9,0c-1.1,0.9-1.6,2.3-1.3,3.7c0.3,1.8,1.5,3.4,3.3,4c1.9,0.6,4-0.1,5.3-1.6
	c1.5-1.8,1.7-4.3,0.4-7c-1-2.4-3.5-3.9-6.1-3.8c-3,0.1-5.6,2-6.8,4.8c-1,2.7-0.5,5.8,1.2,8.1c1.8,2.4,4.7,3.8,7.7,3.7h0.8
	c2.6-0.2,4.9-1.6,6.3-3.8c1.5-2.1,2.3-4.7,2.2-7.4c-0.2-3.5-2-6.8-4.9-8.7c3.1,0.1,6.2,1.2,8.7,3c2.6,2,4.8,4.3,6.6,7
	c0.3,0.5,0.7,0.9,1.1,1.4c-0.4,0.5-0.8,0.9-1.1,1.4c-1.8,2.7-4,5-6.6,7C45.8,65.3,42.1,66.4,38.4,66.2z M66.3,41.5
	c-1.8,1.6-3.7,3-5.8,4.2c-1.8,1-3.5,2.3-5,3.7c-0.8-1.1-1.7-2.1-2.7-3c1.1,0.1,2.2-0.2,3.1-0.9c1.3-0.9,2.5-2,3.7-3.1
	c2.3-2.1,5.4-4.9,7.1-4.7c0.4,0.1,0.7,0.3,0.9,0.6C67.7,38.8,68.2,39.6,66.3,41.5z M55.3,37.1c-2.3,2.5-4.5,4.8-4.4,6.9
	c0,0.4,0.1,0.7,0.3,1.1c-0.3-0.2-0.6-0.5-0.9-0.7c-1.1-0.8-2.2-1.4-3.5-2c1.1-0.2,2.1-0.9,2.8-1.8c1.1-1.4,2.1-2.8,3-4.4
	c1-1.6,2.1-3.2,3.3-4.6c1.4-1.4,2.1-1.1,2.4-0.9c0.7,0.4,0.8,0.7,0.8,0.8C59.4,32.8,57,35.3,55.3,37.1z M54.3,30.1
	c-1.4,1.5-2.6,3.2-3.6,5c-1.4,2.3-3.3,5.4-4.5,5c-0.1,0-0.1-0.1-0.1-0.1s-0.1-0.6,0.3-1.9c0.5-1.2,1-2.4,1.7-3.6
	c1.6-3.3,3.2-6.4,2-8.4c-0.1-0.2-0.2-0.4-0.4-0.5c3.3,0.4,6.4,1.4,9.3,3C57.5,27.9,55.9,28.4,54.3,30.1L54.3,30.1z M47.2,27
	c0.3,0,0.8,0.1,0.9,0.3s0.2,0.7-0.3,2.1c-0.5,1.4-1.1,2.7-1.8,4c-1.5,3-2.8,5.7-2.1,7.5c0.1,0.3,0.3,0.5,0.4,0.7
	c-1.5-0.4-3.1-0.6-4.7-0.7c1.9-2.4,2.7-5.5,3.4-8.2C44.1,28.5,44.8,26.7,47.2,27L47.2,27z M56.2,59.4c0.7,0.9,1.3,1.8,1.8,2.8
	c1,1.8,0.7,2.9,0.5,3.1s-0.6,0.1-1.5-0.5c-1.3-0.8-2.6-1.4-4-1.8C54.1,61.9,55.2,60.6,56.2,59.4L56.2,59.4z M67.4,35.6
	c-0.1,0-0.3-0.1-0.4-0.1c-2.7-0.4-5.9,2.5-9,5.3c-1.1,1-2.1,1.9-3,2.6c-0.4,0.4-1,0.7-1.5,0.9c-0.1-0.1-0.2-0.2-0.2-0.3
	c-0.1-1.1,2.1-3.5,3.7-5.2c2.5-2.7,4.9-5.2,4.5-7.6c-0.1-0.8-0.6-1.4-1.2-1.9C63,31,65.4,33.1,67.4,35.6L67.4,35.6z M28.1,33.1
	c4.2-4.3,9.8-6.9,15.8-7.5c-0.5,0.4-0.9,0.9-1.2,1.5c-0.9,1.6-1.5,3.4-1.8,5.2c-0.8,3.2-1.8,6.9-4.7,8.9c-4.6,0.8-8.7,3-11.9,6.4
	c-1.8,1.8-3.1,4-3.7,6.5c-0.1-0.8-0.1-1.6-0.1-2.4C20.4,44.6,23.2,38,28.1,33.1z M21,56.9c1.1,2.5,2.7,4.7,4.7,6.5
	c2.9,2.7,6.5,4.4,10.3,5.1c0.1,0.1,0.2,0.2,0.3,0.3c0.6,0.4,1.2,2.2,1.6,3.6c0.3,1.3,0.8,2.5,1.4,3.7c0.2,0.3,0.4,0.6,0.6,0.9
	C30.3,74.4,23,66.6,21,56.9z M65.2,70.2c-4.9,4.9-11.6,7.7-18.5,7.7c-0.8,0-1.5,0-2.3-0.1c0.7-0.7,1.3-1.5,1.5-2.5
	c0.4-1.6,0.6-3.2,0.8-4.8c0.1-1,0.2-2.1,0.4-3.1c0-0.1,0-0.2,0-0.3c1.1-0.5,2.2-1.1,3.2-1.9l0.3-0.2c0.3,0,2.1,0.1,5,1.9
	c0.8,0.5,1.7,0.8,2.6,0.9c0.7,0,1.3-0.2,1.8-0.7c1.3-1.2,1.3-3.5,0-6c-0.6-1.3-1.5-2.6-2.5-3.7c0.2-0.3,0.4-0.6,0.7-0.8
	c1.3,1.2,2.7,2.2,4.3,3.1c1.8,1.1,4,1.5,6.1,1.3c1.1-0.2,2.1-0.6,2.9-1.2C70.3,63.6,68.1,67.2,65.2,70.2z M11.9,43.9
	c0.6,0.6,0.9,1.9,0.8,3.2c-0.3,3-2.5,4.9-5.5,4.6c-2.8-0.3-4.8-2.2-4.5-5.5c0.1-1.3,0.7-2.3,1.3-2.9l1.6,1.1c-0.4,0.5-0.7,1-0.8,1.9
	c-0.1,1.5,0.8,2.8,2.7,3c1.7,0.2,3-0.9,3.2-2.6c0.1-0.7-0.1-1.5-0.5-2.2L11.9,43.9z M5.7,34.5c1.1-2.7,3.7-4,6.6-2.9
	c2.7,1.1,3.8,3.9,2.7,6.7c-1.1,2.7-3.7,4-6.6,2.9C5.8,40.1,4.6,37.4,5.7,34.5z M13.1,37.6c0.7-1.7-0.1-3.1-1.6-3.7
	c-1.6-0.7-3.2,0-3.8,1.5c-0.6,1.5,0,3,1.6,3.7C10.8,39.7,12.5,39,13.1,37.6z M10.8,25.6c0.3-0.4,1.1-1.5,1.8-2.3
	c1.5-1.8,2.9-1.8,3.9-1c0.8,0.6,1.1,1.4,1,2.2l0,0c0.7-0.4,1.6-0.4,2.6,0.4c1.6,1.3,1.3,3.1-0.1,4.7c-0.6,0.7-1.4,1.7-1.8,2.1
	L10.8,25.6z M13.8,25.2l1.4,1.1l0.5-0.6c0.4-0.4,0.5-0.9-0.1-1.4c-0.4-0.4-1-0.2-1.4,0.3C14,24.9,13.9,25,13.8,25.2z M16.6,27.6
	l1.4,1.2c0.1-0.1,0.3-0.2,0.5-0.5c0.5-0.7,0.5-1.2,0-1.6c-0.5-0.4-1-0.2-1.4,0.3L16.6,27.6z M24.3,25.1l-5.6-7.9
	c0.4-0.3,1.8-1.3,2.4-1.7c2.4-1.7,4.1-1,5.1,0.4c1,1.4,0.8,3.4-1.1,4.7c-0.2,0.1-0.6,0.4-0.9,0.6l1.9,2.7L24.3,25.1z M21.7,17.6
	l1.3,1.8c0.3-0.2,0.6-0.3,0.9-0.5c0.5-0.3,0.9-1,0.4-1.7c-0.5-0.7-1.1-0.6-1.7-0.1C22.3,17.2,22.1,17.3,21.7,17.6z M28.6,11.1l5.4-2
	l0.7,1.9l-3.3,1.2l0.6,1.6l2.9-1.1l0.7,1.9l-2.9,1.1l0.6,1.6l3.4-1.3l0.7,1.9L32,20.2L28.6,11.1z M39.4,7.6l2.2-0.1l3.2,3.9l2.6-4.2
	l2.1-0.1l0.5,9.7l-2.2,0.1l-0.3-6.2L45,14.6l-0.3,0l-2.9-3.6l0.3,6.1l-2.2,0.1L39.4,7.6z M55.4,8.1l5.5,1.5l-0.5,2L57,10.7l-0.4,1.6
	l3,0.8l-0.5,2l-3-0.8l-0.5,1.7l3.5,0.9l-0.5,2l-5.7-1.5L55.4,8.1z M67.9,19.5l-3-1.8l-2,3.4L61,19.9l5-8.3l1.9,1.2L66,15.9l3,1.8
	l1.9-3.2l1.9,1.2l-5,8.3l-1.9-1.2L67.9,19.5z M76.7,27.7L74.4,25l-3,2.6L70,25.9l7.4-6.4l1.5,1.7L76,23.6l2.3,2.7l2.8-2.4l1.5,1.7
	l-7.4,6.4l-1.5-1.7L76.7,27.7z M86.7,33.1l0.8,1.8l-7.3,7.5l-0.9-2.2l1.5-1.5l-1.5-3.5l-2.2,0.1l-0.9-2L86.7,33.1z M81.5,35.1l0.9,2
	l2.1-2.1L81.5,35.1z M84,47.9l-0.1-1l-3.3-1.5L80.3,43l3.8,1.8c0.4-0.9,1.1-1.6,2.4-1.8c1.8-0.2,3.6,0.7,4,3.7
	c0.1,0.6,0.2,2,0.2,2.6l-9.6,1.1l-0.3-2.2L84,47.9z M86,47.7l2.4-0.3c0-0.1,0-0.7,0-0.8c-0.1-0.7-0.6-1.3-1.4-1.2
	c-0.7,0.1-1,0.6-1.1,1.1L86,47.7z M26.3,78.6l1.9,1.1L26,83.4l4.9-2l2.3,1.4l-5.4,2l0.7,6.5l-2.4-1.4l-0.5-5.7l-2.4,4L21.3,87
	L26.3,78.6z M37.5,83.9l1.9,0.5L41,94.8l-2.3-0.6l-0.3-2.2l-3.7-0.9l-1.3,1.8l-2.2-0.5L37.5,83.9z M36,89.3l2.1,0.5l-0.4-2.9
	L36,89.3z M45.2,95l-0.3-9.7c0.5,0,2.2-0.1,3-0.1c3-0.1,4,1.4,4,3.1c0.1,1.7-1.2,3.3-3.5,3.4c-0.2,0-0.7,0-1.1,0l0.1,3.3L45.2,95z
	 M47.1,87.2l0.1,2.2c0.3,0,0.7,0,1,0c0.6,0,1.3-0.3,1.3-1.2c0-0.9-0.6-1.1-1.4-1.1C47.8,87.2,47.6,87.2,47.1,87.2z M52.5,84.9
	l7.7-2.3l0.6,2L58,85.4l2.1,7.3L58,93.4l-2.1-7.3l-2.8,0.8L52.5,84.9z M63.5,80.8l1.7-1l8.4,6.3l-2,1.2L69.8,86l-3.3,2l0.3,2.2
	l-1.9,1.1L63.5,80.8z M66.2,85.7l1.9-1.1l-2.3-1.8L66.2,85.7z"/>
</svg>
