<?xml version="1.0" encoding="utf-8"?>
<!-- Generator: Adobe Illustrator 26.0.1, SVG Export Plug-In . SVG Version: 6.00 Build 0)  -->
<svg version="1.1" id="Layer_1" xmlns="http://www.w3.org/2000/svg" xmlns:xlink="http://www.w3.org/1999/xlink" x="0px" y="0px"
	 viewBox="0 0 91.3 91.3" xml:space="preserve">
<style type="text/css">
	.st0{fill:#FFFFFF;}
</style>
<path id="Layer_2_00000017490874551010554820000003616876915033873594_" class="st0" d="M24.9,26.2c-11.2,11.2-11.2,29.3,0,40.5
	s29.3,11.2,40.5,0l0,0c11.2-11.2,11.2-29.3,0-40.5S36.1,15,24.9,26.2L24.9,26.2z M19.9,49c0.6-1.5,2-2.7,3.6-3
	c1.8-0.3,4.9,0.5,8.3,3.7c-3.4,3.1-6.6,4-8.3,3.7c-1.6-0.3-3-1.5-3.6-3V49z M18.9,46c0.1-4,1-7.9,2.8-11.4c0,0.2,0.1,0.5,0.2,0.7
	c0.4,1,1.1,2,1.9,2.8c1.9,1.7,4,3.2,6.2,4.5c1.8,1.2,4.3,2.8,4.8,3.6l-0.5,0.6c-0.2,0.3-0.5,0.7-0.8,1c-1.3-1.2-2.7-2.2-4.3-3.1
	c-1.8-1.1-4-1.5-6.1-1.3C21.4,43.8,20,44.7,18.9,46L18.9,46z M47.9,65c-0.1-0.7-0.1-1.4-0.2-2.1c1.5,0.4,3.1,0.6,4.6,0.6
	c-0.4,0.9-0.7,1.9-1,2.8c-0.5,1.6-1.2,4.1-2.1,4.1l0,0c-0.2,0-0.4-0.4-0.7-1.2C48.2,67.9,48,66.4,47.9,65z M42.9,58
	c-2.6-2-4.8-4.3-6.6-7c-0.3-0.5-0.7-0.9-1.1-1.4c0.4-0.4,0.8-0.9,1.1-1.4c1.8-2.7,4-5,6.6-7c2.6-1.8,5.6-2.9,8.7-3
	c-2.9,2-4.7,5.2-4.9,8.7c-0.1,2.6,0.7,5.2,2.2,7.4c1.4,2.1,3.7,3.5,6.3,3.8c0.3,0,0.5,0,0.8,0c3,0.1,5.9-1.3,7.7-3.7
	c1.8-2.3,2.3-5.3,1.4-8.1c-1.1-2.8-3.8-4.6-6.8-4.8c-2.6-0.2-5.1,1.3-6.1,3.8c-1.3,2.7-1.1,5.2,0.4,7c1.3,1.5,3.4,2.2,5.4,1.6
	c1.7-0.6,3-2.2,3.3-4c0.3-1.4-0.2-2.8-1.3-3.7c-1.1-0.9-2.7-0.9-3.9,0c-1,0.7-1.4,1.9-1,3c0.2,0.6,1,0.9,1.6,0.7
	c0.6-0.2,0.9-0.8,0.7-1.4c0.1-0.2,0.2-0.3,0.4-0.4c0.1,0,0.4-0.2,0.8,0.2c0.3,0.3,0.5,0.8,0.4,1.3c-0.1,0.9-0.7,1.7-1.6,2.1
	c-1,0.3-2.1,0-2.8-0.8c-0.9-1-0.9-2.6,0-4.4c0.6-1.5,2.2-2.5,3.8-2.4c2,0.1,3.8,1.3,4.6,3.2c0.6,2,0.2,4.1-1,5.8
	c-1,1.3-2.9,2.9-6.5,2.7c-1.9-0.2-3.6-1.2-4.6-2.8c-1.2-1.7-1.8-3.8-1.8-5.9c0.3-4.4,3.7-7.9,8.1-8.3c3.3,1,6.3,2.8,8.7,5.3
	c2.2,2.3,3.1,4.5,3,5.6c-0.1,1.5-1.6,4.3-4.4,6.8c-3,2.8-6.9,4.4-11,4.6C49.7,61.3,45.9,60.2,42.9,58L42.9,58z M24.3,33.3
	c0.2-0.3,0.5-0.6,0.9-0.6c1.6-0.2,4.8,2.6,7.1,4.7c1.2,1.1,2.4,2.1,3.7,3.1c0.9,0.7,2,1,3.1,0.9c-1,0.9-1.9,1.9-2.7,3
	c-1.5-1.4-3.2-2.7-5-3.7c-2.1-1.2-4-2.6-5.8-4.2C23.5,34.5,24,33.7,24.3,33.3z M32.6,26.4c0-0.1,0.1-0.4,0.8-0.8
	c0.3-0.2,1-0.5,2.4,0.9c1.2,1.4,2.3,3,3.3,4.6c0.9,1.5,1.9,3,3,4.4c0.7,0.9,1.7,1.5,2.8,1.8c-1.2,0.5-2.4,1.2-3.5,2L40.5,40
	c0.2-0.3,0.3-0.7,0.3-1.1c0.1-2.1-2-4.5-4.4-6.9C34.7,30.1,32.4,27.6,32.6,26.4z M32.7,23.4c2.9-1.6,6.1-2.6,9.3-3
	c-0.1,0.2-0.3,0.3-0.4,0.5c-1.1,2,0.4,5.1,2,8.4c0.6,1.2,1.2,2.4,1.7,3.6s0.4,1.8,0.3,1.9s0,0-0.1,0.1c-1.1,0.4-3-2.7-4.4-5
	c-1-1.8-2.2-3.5-3.6-5C35.8,23.3,34.2,22.8,32.7,23.4L32.7,23.4z M48.7,27.6c0.7,2.6,1.5,5.7,3.4,8.2c-1.6,0-3.2,0.3-4.7,0.7
	c0.2-0.2,0.3-0.5,0.4-0.7c0.7-1.8-0.6-4.4-2.1-7.5c-0.7-1.3-1.3-2.6-1.8-4c-0.5-1.5-0.4-2-0.3-2.1s0.6-0.3,0.9-0.3
	C47,21.6,47.6,23.3,48.7,27.6z M38.8,57.8c-1.4,0.5-2.8,1.1-4,1.9c-0.9,0.6-1.4,0.5-1.5,0.5s-0.4-1.2,0.5-3.1c0.5-1,1.1-2,1.8-2.8
	C36.6,55.5,37.6,56.7,38.8,57.8z M24.4,30.4c1.9-2.5,4.3-4.7,7-6.3c-0.6,0.5-1,1.2-1.1,1.9c-0.4,2.4,2,4.9,4.5,7.6
	c1.6,1.7,3.8,4,3.7,5.2c0,0.1-0.1,0.2-0.2,0.3c-0.6-0.2-1.1-0.5-1.5-0.9c-0.9-0.7-1.9-1.6-3-2.6c-3.1-2.8-6.2-5.6-9-5.3
	C24.6,30.3,24.5,30.4,24.4,30.4L24.4,30.4z M71.3,46.5c0,0.8,0,1.6-0.1,2.4c-0.6-2.5-1.8-4.7-3.7-6.5c-3.2-3.4-7.3-5.6-11.9-6.4
	c-3-2-3.9-5.7-4.7-8.9c-0.4-1.8-1-3.6-1.8-5.2c-0.3-0.5-0.8-1-1.2-1.4C61.2,21.9,71.3,33.1,71.3,46.5z M51.9,71.8
	c0.2-0.3,0.4-0.6,0.6-0.9c0.6-1.2,1-2.4,1.4-3.7c0.4-1.4,1-3.2,1.6-3.6c0.1-0.1,0.2-0.2,0.3-0.3c3.9-0.6,7.5-2.4,10.4-5.1
	c2-1.8,3.6-4,4.7-6.5C68.8,61.5,61.5,69.2,51.9,71.8z M20.2,54.5c0.8,0.6,1.8,1.1,2.9,1.2c2.1,0.3,4.3-0.2,6.1-1.3
	c1.6-0.8,3-1.9,4.3-3.1c0.2,0.3,0.5,0.5,0.7,0.8c-1,1.1-1.8,2.4-2.5,3.7c-1.3,2.5-1.3,4.8,0,6c0.5,0.5,1.2,0.7,1.9,0.7
	c0.9,0,1.8-0.3,2.6-0.9c2.9-1.8,4.7-1.9,5-1.9l0.3,0.2c1,0.7,2.1,1.4,3.2,1.9c0,0.1,0,0.2,0,0.3c0.2,1,0.4,2.1,0.4,3.1
	c0.1,1.6,0.3,3.2,0.7,4.8c0.2,1,0.7,1.8,1.5,2.5c-0.8,0.1-1.5,0.1-2.3,0.1C33.7,72.8,23.6,65.4,20.2,54.5L20.2,54.5z M11.6,49.4
	l-9.4-0.1l0-2.2l5.9,0.1L2.3,43l0-1.9l9.4,0.1l0,2.2l-5.9-0.1l5.8,4.3L11.6,49.4z M13.9,31.2c0.4,0.7,0.5,2,0,3.3
	c-0.9,2.8-3.4,4-6.2,3.1c-2.6-0.9-4.1-3.2-3-6.2c0.4-1.2,1.2-2.1,1.9-2.4l1.2,1.4c-0.5,0.4-0.9,0.8-1.2,1.6
	c-0.5,1.4,0.1,2.8,1.8,3.4c1.6,0.5,3.1-0.2,3.6-1.8c0.2-0.6,0.3-1.4,0-2.2L13.9,31.2z M7.4,25.4l4.4-6.5l1.7,1.1l-1.6,2.3l6.2,4.1
	l-1.2,1.8l-6.2-4.1l-1.6,2.3L7.4,25.4z M17.9,12.9c2.2-1.8,5.1-1.7,7,0.6c1.8,2.2,1.4,5.1-0.8,6.9c-2.2,1.8-5.1,1.7-7-0.6
	C15.4,17.8,15.6,14.8,17.9,12.9z M22.8,18.9c1.4-1.1,1.3-2.7,0.3-3.9c-1.1-1.3-2.7-1.5-3.9-0.5c-1.2,1-1.4,2.6-0.3,3.9
	C19.9,19.7,21.6,19.9,22.8,18.9z M29.9,16.3l-3.5-8.8c0.5-0.2,2-0.8,2.7-1.1c2.7-1.1,4.1,0,4.7,1.5c0.6,1.6,0,3.4-2.1,4.2
	c-0.2,0.1-0.7,0.3-1,0.4l1.2,3L29.9,16.3z M29.1,8.6l0.8,2c0.3-0.1,0.7-0.2,0.9-0.3c0.5-0.2,1.1-0.7,0.7-1.5C31.3,8,30.7,8,30,8.2
	C29.8,8.3,29.6,8.4,29.1,8.6z M38.3,13.2l-0.8-9.4l2.1-0.2l0.5,5.8l3.7-6.2l1.9-0.2l0.8,9.4l-2.1,0.2l-0.5-5.8l-3.7,6.2L38.3,13.2z
	 M56,14.4l-2.1-0.5l0.8-3.5c-0.5,0.2-1.2,0.3-2.1,0.1c-1.3-0.3-2.7-1.3-2.2-3.6l0.8-3.3l2.1,0.5l-0.6,2.7c-0.3,1.4,0.3,1.7,0.9,1.9
	c0.5,0.1,1,0,1.5-0.2L56,4.7l2.1,0.5L56,14.4z M63.2,7.2l4.9,2.7l-1,1.8l-3-1.6l-0.8,1.5l2.7,1.4l-1,1.8l-2.7-1.4l-0.8,1.5l3.1,1.7
	l-1,1.8l-5-2.7L63.2,7.2z M71.8,24.1c-0.9,0.1-2.1-0.4-3-1.3c-2.1-2-2.3-4.8-0.2-7c1.9-2,4.6-2.4,7-0.2c0.9,0.9,1.4,1.9,1.4,2.7
	l-1.8,0.5c-0.2-0.6-0.4-1.1-1-1.8c-1.1-1-2.6-1.1-3.9,0.3c-1.2,1.2-1.1,2.9,0.1,4.1c0.5,0.5,1.2,0.8,2,0.9L71.8,24.1z M80.4,21.6
	l1.1,1.9L78,25.6l5.1,0.6l1.3,2.2l-5.5-0.9l-2.4,5.9L75,31l2.2-5l-3.9,2.3l-1.1-1.9L80.4,21.6z M86.7,35.5l0.4,1.9l-8.3,6l-0.5-2.2
	l1.7-1.2l-0.9-3.6l-2.1-0.3l-0.5-2.1L86.7,35.5z M81.3,36.6l0.5,2.1l2.4-1.6L81.3,36.6z M81.5,49.3l0.1-1l-2.9-2l0.1-2.4l3.4,2.4
	c0.5-0.8,1.4-1.4,2.7-1.3c1.8,0.1,3.3,1.3,3.2,4.3c0,0.6-0.2,1.9-0.2,2.5l-9.4-0.6l0.1-2.2L81.5,49.3z M83.5,49.4l2.4,0.1
	c0-0.1,0.1-0.6,0.1-0.8c0-0.7-0.4-1.4-1.2-1.4c-0.7,0-1.1,0.4-1.2,0.9L83.5,49.4z M25.1,72.8l1.9,1.1l-2.1,3.6l4.8-2l2.2,1.3l-5.3,2
	l0.7,6.4L25,83.8l-0.5-5.5l-2.3,3.9L20.3,81L25.1,72.8z M36.2,78l1.9,0.5l1.6,10.2l-2.3-0.6L37.1,86l-3.7-0.9l-1.2,1.8l-2.1-0.5
	L36.2,78z M34.7,83.3l2.1,0.5l-0.4-2.9L34.7,83.3z M43.7,88.8l-0.4-9.5c0.5,0,2.2-0.1,2.9-0.1c2.9-0.1,3.9,1.4,4,3
	c0.1,1.7-1.2,3.2-3.4,3.3c-0.2,0-0.7,0-1.1,0l0.1,3.2L43.7,88.8z M45.6,81.3l0.1,2.2c0.3,0,0.7,0,1,0c0.6,0,1.3-0.3,1.2-1.2
	c0-0.8-0.6-1.1-1.4-1C46.3,81.2,46,81.2,45.6,81.3z M50.9,78.9l7.6-2.2l0.6,2l-2.7,0.8l2.1,7.2l-2.1,0.6l-2.1-7.2l-2.7,0.8
	L50.9,78.9z M61.5,74.9l1.7-1l8.3,6.1l-2,1.2l-1.7-1.3l-3.2,2L65,84l-1.9,1.1L61.5,74.9z M64.3,79.7l1.8-1.1l-2.3-1.8L64.3,79.7z"/>
</svg>
